<svg width="134" height="31" viewBox="0 0 134 31" fill="none" xmlns="http://www.w3.org/2000/svg">
<g clip-path="url(#clip0_2524_2224)">
<path d="M49.1422 16.2795C49.2362 16.4562 49.3255 16.6399 49.4101 16.8305C49.4995 17.0212 49.5841 17.2165 49.664 17.4164C49.744 17.2118 49.8286 17.0142 49.9179 16.8235C50.0073 16.6282 50.099 16.4399 50.193 16.2586L52.8307 11.125C52.8777 11.0366 52.9247 10.9692 52.9717 10.9227C53.0234 10.8715 53.0799 10.8343 53.141 10.8111C53.2021 10.7878 53.2703 10.7739 53.3455 10.7692C53.4254 10.7646 53.5171 10.7623 53.6206 10.7623H55.4401V20.9248H53.3385V15.0798C53.3385 14.7961 53.3526 14.4892 53.3808 14.1591L50.6585 19.3834C50.5738 19.5461 50.4586 19.6693 50.3129 19.753C50.1718 19.8367 50.0096 19.8786 49.8263 19.8786H49.5018C49.3185 19.8786 49.1539 19.8367 49.0081 19.753C48.8671 19.6693 48.7543 19.5461 48.6696 19.3834L45.9332 14.1521C45.952 14.3149 45.9661 14.4776 45.9755 14.6404C45.9849 14.7985 45.9896 14.9449 45.9896 15.0798V20.9248H43.8879V10.7623H45.7075C45.811 10.7623 45.9003 10.7646 45.9755 10.7692C46.0554 10.7739 46.126 10.7878 46.1871 10.8111C46.2482 10.8343 46.3023 10.8715 46.3493 10.9227C46.401 10.9692 46.4504 11.0366 46.4974 11.125L49.1422 16.2795ZM60.1294 22.8011C60.0636 22.9453 59.9837 23.0499 59.8897 23.115C59.7956 23.1847 59.6452 23.2196 59.4383 23.2196H57.8021L59.2126 20.2901L56.2928 13.6918H58.2252C58.3945 13.6918 58.5261 13.729 58.6202 13.8034C58.7142 13.8778 58.78 13.9661 58.8177 14.0684L60.0166 17.1862C60.1294 17.4745 60.2211 17.7628 60.2917 18.0511C60.3387 17.9023 60.3904 17.7559 60.4468 17.6117C60.5032 17.4676 60.5573 17.3211 60.609 17.1723L61.6951 14.0684C61.7327 13.9615 61.8056 13.8731 61.9138 13.8034C62.0266 13.729 62.1465 13.6918 62.2734 13.6918H64.0366L60.1294 22.8011ZM70.1899 16.2795C70.2839 16.4562 70.3732 16.6399 70.4579 16.8305C70.5472 17.0212 70.6318 17.2165 70.7118 17.4164C70.7917 17.2118 70.8763 17.0142 70.9657 16.8235C71.055 16.6282 71.1467 16.4399 71.2407 16.2586L73.8784 11.125C73.9254 11.0366 73.9724 10.9692 74.0194 10.9227C74.0712 10.8715 74.1276 10.8343 74.1887 10.8111C74.2498 10.7878 74.318 10.7739 74.3932 10.7692C74.4732 10.7646 74.5648 10.7623 74.6683 10.7623H76.4879V20.9248H74.3862V15.0798C74.3862 14.7961 74.4003 14.4892 74.4285 14.1591L71.7062 19.3834C71.6215 19.5461 71.5064 19.6693 71.3606 19.753C71.2195 19.8367 71.0573 19.8786 70.874 19.8786H70.5495C70.3662 19.8786 70.2016 19.8367 70.0559 19.753C69.9148 19.6693 69.802 19.5461 69.7173 19.3834L66.9809 14.1521C66.9997 14.3149 67.0138 14.4776 67.0232 14.6404C67.0326 14.7985 67.0373 14.9449 67.0373 15.0798V20.9248H64.9357V10.7623H66.7552C66.8587 10.7623 66.948 10.7646 67.0232 10.7692C67.1032 10.7739 67.1737 10.7878 67.2348 10.8111C67.2959 10.8343 67.35 10.8715 67.397 10.9227C67.4487 10.9692 67.4981 11.0366 67.5451 11.125L70.1899 16.2795ZM81.4455 13.5802C82.0003 13.5802 82.5057 13.6662 82.9618 13.8382C83.4179 14.0103 83.8081 14.2567 84.1325 14.5776C84.4616 14.8984 84.7155 15.289 84.8942 15.7494C85.0776 16.2051 85.1693 16.7189 85.1693 17.2909C85.1693 17.8675 85.0776 18.3883 84.8942 18.8533C84.7155 19.3136 84.4616 19.7065 84.1325 20.032C83.8081 20.3529 83.4179 20.6017 82.9618 20.7784C82.5057 20.9504 82.0003 21.0364 81.4455 21.0364C80.886 21.0364 80.3758 20.9504 79.9151 20.7784C79.459 20.6017 79.064 20.3529 78.7302 20.032C78.4011 19.7065 78.1445 19.3136 77.9612 18.8533C77.7825 18.3883 77.6932 17.8675 77.6932 17.2909C77.6932 16.7189 77.7825 16.2051 77.9612 15.7494C78.1445 15.289 78.4011 14.8984 78.7302 14.5776C79.064 14.2567 79.459 14.0103 79.9151 13.8382C80.3758 13.6662 80.886 13.5802 81.4455 13.5802ZM81.4455 19.4322C81.9486 19.4322 82.3176 19.2578 82.5527 18.9091C82.7925 18.5557 82.9124 18.0209 82.9124 17.3048C82.9124 16.5887 82.7925 16.0563 82.5527 15.7075C82.3176 15.3588 81.9486 15.1844 81.4455 15.1844C80.9283 15.1844 80.5498 15.3588 80.31 15.7075C80.0702 16.0563 79.9503 16.5887 79.9503 17.3048C79.9503 18.0209 80.0702 18.5557 80.31 18.9091C80.5498 19.2578 80.9283 19.4322 81.4455 19.4322ZM86.369 20.9248V10.4833H88.5553V14.459C88.828 14.194 89.136 13.9824 89.4792 13.8243C89.8271 13.6615 90.2338 13.5802 90.6993 13.5802C91.0801 13.5802 91.4328 13.6615 91.7572 13.8243C92.0816 13.987 92.3614 14.2265 92.5965 14.5427C92.8316 14.8543 93.0149 15.2379 93.1466 15.6936C93.2829 16.1493 93.3511 16.6678 93.3511 17.249C93.3511 17.7931 93.2735 18.2953 93.1184 18.7556C92.9679 19.216 92.754 19.6159 92.4766 19.9553C92.2039 20.2948 91.8747 20.5598 91.4892 20.7505C91.1084 20.9411 90.6852 21.0364 90.2197 21.0364C90.0034 21.0364 89.8083 21.0155 89.6344 20.9737C89.4651 20.9318 89.3076 20.8737 89.1618 20.7993C89.0208 20.7202 88.8891 20.6272 88.7669 20.5203C88.6493 20.4133 88.5341 20.2971 88.4213 20.1715L88.3437 20.5342C88.3108 20.683 88.2497 20.7853 88.1604 20.8411C88.0757 20.8969 87.9629 20.9248 87.8218 20.9248H86.369ZM89.9376 15.2053C89.7778 15.2053 89.632 15.2216 89.5004 15.2542C89.3734 15.2821 89.2535 15.3239 89.1407 15.3797C89.0325 15.4355 88.9314 15.5076 88.8374 15.5959C88.7434 15.6796 88.6493 15.7773 88.5553 15.8889V18.9579C88.7199 19.1392 88.8985 19.2671 89.0913 19.3415C89.2841 19.4113 89.4862 19.4461 89.6978 19.4461C89.9 19.4461 90.0857 19.4066 90.255 19.3276C90.4243 19.2485 90.57 19.123 90.6923 18.9509C90.8192 18.7742 90.9179 18.5464 90.9885 18.2674C91.059 17.9884 91.0943 17.6489 91.0943 17.249C91.0943 16.8677 91.066 16.5469 91.0096 16.2865C90.9532 16.0261 90.8733 15.8168 90.7698 15.6587C90.6711 15.496 90.5512 15.3797 90.4101 15.31C90.2691 15.2402 90.1116 15.2053 89.9376 15.2053ZM96.8077 13.6918V20.9248H94.6213V13.6918H96.8077ZM97.0616 11.7109C97.0616 11.8829 97.0263 12.0457 96.9558 12.1991C96.8852 12.3479 96.7889 12.4804 96.6666 12.5967C96.5444 12.7083 96.401 12.799 96.2364 12.8687C96.0765 12.9338 95.9049 12.9664 95.7216 12.9664C95.5429 12.9664 95.376 12.9338 95.2208 12.8687C95.0657 12.799 94.927 12.7083 94.8047 12.5967C94.6872 12.4804 94.5931 12.3479 94.5226 12.1991C94.4568 12.0457 94.4239 11.8829 94.4239 11.7109C94.4239 11.5342 94.4568 11.3691 94.5226 11.2156C94.5931 11.0622 94.6872 10.9273 94.8047 10.8111C94.927 10.6948 95.0657 10.6042 95.2208 10.5391C95.376 10.474 95.5429 10.4414 95.7216 10.4414C95.9049 10.4414 96.0765 10.474 96.2364 10.5391C96.401 10.6042 96.5444 10.6948 96.6666 10.8111C96.7889 10.9273 96.8852 11.0622 96.9558 11.2156C97.0263 11.3691 97.0616 11.5342 97.0616 11.7109Z" fill="#002F47"/>
<path d="M105.188 10.7622V12.5757H100.971V15.1495H104.483V16.97H100.971V20.9248H98.5731V10.7622H105.188ZM109.256 13.5801C109.811 13.5801 110.317 13.6661 110.773 13.8382C111.229 14.0102 111.619 14.2567 111.943 14.5775C112.272 14.8984 112.526 15.289 112.705 15.7493C112.888 16.205 112.98 16.7189 112.98 17.2908C112.98 17.8674 112.888 18.3882 112.705 18.8532C112.526 19.3136 112.272 19.7065 111.943 20.032C111.619 20.3528 111.229 20.6016 110.773 20.7783C110.317 20.9504 109.811 21.0364 109.256 21.0364C108.697 21.0364 108.187 20.9504 107.726 20.7783C107.27 20.6016 106.875 20.3528 106.541 20.032C106.212 19.7065 105.956 19.3136 105.772 18.8532C105.594 18.3882 105.504 17.8674 105.504 17.2908C105.504 16.7189 105.594 16.205 105.772 15.7493C105.956 15.289 106.212 14.8984 106.541 14.5775C106.875 14.2567 107.27 14.0102 107.726 13.8382C108.187 13.6661 108.697 13.5801 109.256 13.5801ZM109.256 19.4321C109.759 19.4321 110.128 19.2578 110.364 18.909C110.603 18.5556 110.723 18.0209 110.723 17.3048C110.723 16.5887 110.603 16.0562 110.364 15.7075C110.128 15.3587 109.759 15.1844 109.256 15.1844C108.739 15.1844 108.361 15.3587 108.121 15.7075C107.881 16.0562 107.761 16.5887 107.761 17.3048C107.761 18.0209 107.881 18.5556 108.121 18.909C108.361 19.2578 108.739 19.4321 109.256 19.4321ZM114.18 20.9248V13.6917H115.478C115.586 13.6917 115.675 13.701 115.745 13.7196C115.821 13.7382 115.882 13.7684 115.929 13.8103C115.981 13.8475 116.018 13.8986 116.042 13.9637C116.07 14.0288 116.093 14.1079 116.112 14.2009L116.232 14.8775C116.5 14.4683 116.801 14.1451 117.135 13.9079C117.469 13.6708 117.833 13.5522 118.228 13.5522C118.562 13.5522 118.83 13.6313 119.032 13.7894L118.75 15.3797C118.731 15.4773 118.694 15.5471 118.637 15.5889C118.581 15.6261 118.505 15.6447 118.411 15.6447C118.331 15.6447 118.237 15.6354 118.129 15.6168C118.021 15.5936 117.885 15.5819 117.72 15.5819C117.147 15.5819 116.695 15.8842 116.366 16.4887V20.9248H114.18ZM125.282 15.4076C125.216 15.4866 125.153 15.5494 125.092 15.5959C125.031 15.6424 124.944 15.6656 124.831 15.6656C124.723 15.6656 124.624 15.6401 124.535 15.5889C124.45 15.5378 124.354 15.482 124.245 15.4215C124.137 15.3564 124.01 15.2983 123.865 15.2471C123.719 15.196 123.538 15.1704 123.322 15.1704C123.054 15.1704 122.821 15.2192 122.623 15.3169C122.431 15.4145 122.271 15.554 122.144 15.7354C122.017 15.9167 121.923 16.1399 121.862 16.405C121.801 16.6654 121.77 16.9607 121.77 17.2908C121.77 17.9837 121.904 18.5161 122.172 18.8881C122.445 19.2601 122.819 19.4461 123.293 19.4461C123.547 19.4461 123.747 19.4159 123.893 19.3554C124.043 19.2903 124.17 19.2206 124.274 19.1462C124.377 19.0671 124.471 18.995 124.556 18.9299C124.645 18.8648 124.756 18.8323 124.887 18.8323C125.061 18.8323 125.193 18.8951 125.282 19.0206L125.917 19.7948C125.691 20.0506 125.454 20.2598 125.205 20.4226C124.955 20.5807 124.699 20.7062 124.436 20.7992C124.177 20.8876 123.916 20.948 123.653 20.9806C123.39 21.0178 123.134 21.0364 122.884 21.0364C122.438 21.0364 122.01 20.9527 121.601 20.7853C121.196 20.6179 120.839 20.3761 120.529 20.0599C120.223 19.739 119.979 19.3461 119.795 18.8811C119.617 18.4161 119.527 17.886 119.527 17.2908C119.527 16.77 119.605 16.2841 119.76 15.833C119.92 15.3773 120.153 14.9844 120.458 14.6543C120.769 14.3195 121.149 14.0567 121.601 13.8661C122.057 13.6754 122.583 13.5801 123.181 13.5801C123.754 13.5801 124.257 13.6708 124.69 13.8521C125.122 14.0335 125.513 14.2985 125.861 14.6473L125.282 15.4076ZM129.998 13.5801C130.482 13.5801 130.924 13.6545 131.324 13.8033C131.728 13.9521 132.074 14.1683 132.361 14.452C132.652 14.7356 132.878 15.0844 133.038 15.4982C133.202 15.9074 133.285 16.3724 133.285 16.8932C133.285 17.056 133.278 17.1885 133.263 17.2908C133.249 17.3931 133.223 17.4745 133.186 17.5349C133.148 17.5954 133.097 17.6372 133.031 17.6605C132.97 17.6837 132.89 17.6954 132.791 17.6954H128.573C128.644 18.2999 128.83 18.7393 129.131 19.0136C129.432 19.2833 129.819 19.4182 130.294 19.4182C130.548 19.4182 130.767 19.388 130.95 19.3275C131.134 19.2671 131.296 19.1996 131.437 19.1252C131.583 19.0508 131.714 18.9834 131.832 18.923C131.954 18.8625 132.081 18.8323 132.213 18.8323C132.387 18.8323 132.518 18.8951 132.608 19.0206L133.242 19.7948C133.017 20.0506 132.772 20.2598 132.509 20.4226C132.25 20.5807 131.982 20.7062 131.705 20.7992C131.432 20.8876 131.157 20.948 130.88 20.9806C130.607 21.0178 130.346 21.0364 130.097 21.0364C129.584 21.0364 129.102 20.955 128.651 20.7923C128.204 20.6249 127.812 20.3784 127.473 20.0529C127.139 19.7274 126.874 19.3229 126.676 18.8393C126.484 18.3557 126.387 17.793 126.387 17.1513C126.387 16.6677 126.469 16.2097 126.634 15.7772C126.803 15.3448 127.043 14.9658 127.353 14.6403C127.668 14.3148 128.047 14.0567 128.489 13.8661C128.935 13.6754 129.439 13.5801 129.998 13.5801ZM130.04 15.0728C129.622 15.0728 129.295 15.1913 129.06 15.4285C128.825 15.661 128.67 15.9981 128.595 16.4399H131.324C131.324 16.2678 131.3 16.1004 131.253 15.9377C131.211 15.7749 131.138 15.6308 131.035 15.5052C130.936 15.375 130.804 15.2704 130.64 15.1913C130.475 15.1123 130.275 15.0728 130.04 15.0728Z" fill="#A2A2A2"/>
<path d="M17.8342 30.8536C17.1276 30.95 16.4059 30.9999 15.6725 30.9999C7.01682 30.9999 0 24.0603 0 15.4999C0 13.7669 0.287553 12.1004 0.818043 10.5444L10.3088 16.9029L18.4933 10.5826H30.5399C31.0621 12.1277 31.345 13.7811 31.345 15.4999C31.345 22.6547 26.4433 28.6773 19.7798 30.4622V18.493H27.1297V16.5688H17.8342V30.8536Z" fill="#CF4B3D"/>
<path d="M15.6725 0C9.47296 0 4.11419 3.55999 1.57214 8.72572L10.2276 14.5246L17.8238 8.65861H29.7397C27.1844 3.5292 21.8452 0 15.6725 0Z" fill="#CF4B3D"/>
</g>
<defs>
<clipPath id="clip0_2524_2224">
<rect width="134" height="31" fill="white"/>
</clipPath>
</defs>
</svg>
